# xmcd
# 
# Track frame offsets:
#     150
#     114759
#     164799
# 
# Disc length: 2653
# 
# Revision: 1
# Processed by: cddbd v1.5.2PL0 Copyright (c) Steve Scherf et al.
# Submitted via: BonkEnc v1.0.6
# 
DISCID=1e0a5b03
DTITLE=Mal Waldron - The Whirling Dervish
DYEAR=1972
DGENRE=Jazz
TTITLE0=Reaching Out
TTITLE1=The Whirling Dervish
TTITLE2=Walk
EXTD=
EXTT0=
EXTT1=
EXTT2=
PLAYORDER=
